<svg width="31" height="97" viewBox="0 0 31 97" fill="none" xmlns="http://www.w3.org/2000/svg">
<path d="M12.0014 74.1224L12.3875 73.8047L12.0014 74.1224ZM30.4977 96.0484C30.4709 96.3233 30.2264 96.5244 29.9516 96.4977L25.4727 96.062C25.1979 96.0352 24.9968 95.7907 25.0235 95.5159C25.0502 95.2411 25.2947 95.0399 25.5695 95.0667L29.5508 95.4539L29.938 91.4727C29.9648 91.1979 30.2093 90.9968 30.4841 91.0235C30.7589 91.0502 30.9601 91.2947 30.9333 91.5695L30.4977 96.0484ZM12.3875 73.8047L30.3861 95.6823L29.6139 96.3177L11.6153 74.4401L12.3875 73.8047ZM30.1946 1.46059C1.56258 13.5551 -7.35936 49.802 12.3875 73.8047L11.6153 74.4401C-8.55647 49.9209 0.557428 12.8942 29.8054 0.539407L30.1946 1.46059Z" fill="black"/>
</svg>
