<svg width="66" height="45" viewBox="0 0 66 45" fill="none" xmlns="http://www.w3.org/2000/svg">
<path d="M5.90828 43.1267L5.83895 43.6218L5.83895 43.6218L5.90828 43.1267ZM62.9031 0.704019C62.7396 0.481462 62.4267 0.433563 62.2041 0.597034L58.5773 3.26095C58.3548 3.42442 58.3069 3.73736 58.4704 3.95992C58.6338 4.18248 58.9468 4.23038 59.1693 4.0669L62.3931 1.69898L64.7611 4.92278C64.9245 5.14534 65.2375 5.19324 65.46 5.02977C65.6826 4.86629 65.7305 4.55336 65.567 4.3308L62.9031 0.704019ZM0.930738 42.9346L5.83895 43.6218L5.97761 42.6315L1.0694 41.9443L0.930738 42.9346ZM5.83895 43.6218C33.3235 47.4699 58.7954 28.5088 62.9944 1.07566L62.0059 0.924361C57.8897 27.8165 32.9201 46.4037 5.97761 42.6315L5.83895 43.6218Z" fill="#FAFAFA"/>
</svg>
