<svg width="31" height="87" viewBox="0 0 31 87" fill="none" xmlns="http://www.w3.org/2000/svg">
<path d="M20.0647 74.9802L20.4577 75.2894L20.0647 74.9802ZM10.5035 86.5592C10.5362 86.8334 10.785 87.0292 11.0592 86.9965L15.5275 86.4636C15.8017 86.4309 15.9975 86.1821 15.9648 85.9079C15.9321 85.6337 15.6833 85.4379 15.4091 85.4706L11.4373 85.9443L10.9636 81.9725C10.9309 81.6983 10.6821 81.5025 10.4079 81.5352C10.1337 81.5679 9.9379 81.8167 9.9706 82.0909L10.5035 86.5592ZM19.6718 74.6711L10.6071 86.1908L11.3929 86.8092L20.4577 75.2894L19.6718 74.6711ZM0.805439 1.46059C29.7029 13.6673 39.0706 50.0184 19.6718 74.6711L20.4577 75.2894C40.2644 50.1184 30.6997 13.0028 1.19456 0.539407L0.805439 1.46059Z" fill="black"/>
</svg>
