<svg width="65" height="42" viewBox="0 0 65 42" fill="none" xmlns="http://www.w3.org/2000/svg">
<path d="M3.09812 4.35006L3.01746 3.85661L3.01746 3.85661L3.09812 4.35006ZM0.594074 4.40116C0.432874 4.62537 0.483951 4.93781 0.708158 5.09901L4.36181 7.72594C4.58602 7.88715 4.89845 7.83607 5.05965 7.61186C5.22086 7.38766 5.16978 7.07522 4.94558 6.91402L1.69788 4.57897L4.03294 1.33127C4.19414 1.10706 4.14307 0.794632 3.91886 0.63343C3.69465 0.472228 3.38221 0.523301 3.22101 0.74751L0.594074 4.40116ZM3.01746 3.85661L0.919374 4.1996L1.0807 5.18649L3.17879 4.84351L3.01746 3.85661ZM64.8806 41.6614C56.4498 15.4923 30.151 -0.579018 3.01746 3.85661L3.17879 4.84351C29.8241 0.487694 55.6497 16.2698 63.9288 41.9681L64.8806 41.6614Z" fill="black"/>
</svg>
